<mxfile host="Electron" agent="Mozilla/5.0 (Macintosh; Intel Mac OS X 10_15_7) AppleWebKit/537.36 (KHTML, like Gecko) draw.io/26.0.9 Chrome/128.0.6613.186 Electron/32.2.5 Safari/537.36" version="26.0.9">
  <diagram name="Page-1" id="FOHFxnUvc4RNLaG2duTK">
    <mxGraphModel dx="794" dy="1214" grid="1" gridSize="10" guides="1" tooltips="1" connect="1" arrows="1" fold="1" page="1" pageScale="1" pageWidth="827" pageHeight="1169" math="0" shadow="0">
      <root>
        <mxCell id="0" />
        <mxCell id="1" parent="0" />
        <mxCell id="U6mOK4DwWGYdjo9MZb6x-6" value="" style="triangle;whiteSpace=wrap;html=1;rotation=-90;" vertex="1" parent="1">
          <mxGeometry x="110" y="140" width="60" height="60" as="geometry" />
        </mxCell>
        <mxCell id="U6mOK4DwWGYdjo9MZb6x-7" value="" style="shape=trapezoid;perimeter=trapezoidPerimeter;whiteSpace=wrap;html=1;fixedSize=1;size=30;" vertex="1" parent="1">
          <mxGeometry x="80" y="200" width="120" height="60" as="geometry" />
        </mxCell>
        <mxCell id="U6mOK4DwWGYdjo9MZb6x-8" value="" style="shape=trapezoid;perimeter=trapezoidPerimeter;whiteSpace=wrap;html=1;fixedSize=1;size=30;" vertex="1" parent="1">
          <mxGeometry x="50" y="260" width="180" height="60" as="geometry" />
        </mxCell>
        <mxCell id="U6mOK4DwWGYdjo9MZb6x-9" value="end-to&lt;div&gt;-end&lt;/div&gt;" style="text;html=1;align=center;verticalAlign=middle;whiteSpace=wrap;rounded=0;fontSize=11;" vertex="1" parent="1">
          <mxGeometry x="110" y="170" width="60" height="30" as="geometry" />
        </mxCell>
        <mxCell id="U6mOK4DwWGYdjo9MZb6x-10" value="통합" style="text;html=1;align=center;verticalAlign=middle;whiteSpace=wrap;rounded=0;" vertex="1" parent="1">
          <mxGeometry x="110" y="215" width="60" height="30" as="geometry" />
        </mxCell>
        <mxCell id="U6mOK4DwWGYdjo9MZb6x-11" value="단위" style="text;html=1;align=center;verticalAlign=middle;whiteSpace=wrap;rounded=0;" vertex="1" parent="1">
          <mxGeometry x="110" y="270" width="60" height="30" as="geometry" />
        </mxCell>
        <mxCell id="U6mOK4DwWGYdjo9MZb6x-12" value="" style="triangle;whiteSpace=wrap;html=1;rotation=90;" vertex="1" parent="1">
          <mxGeometry x="660" y="260" width="60" height="60" as="geometry" />
        </mxCell>
        <mxCell id="U6mOK4DwWGYdjo9MZb6x-13" value="" style="shape=trapezoid;perimeter=trapezoidPerimeter;whiteSpace=wrap;html=1;fixedSize=1;size=30;rotation=-180;" vertex="1" parent="1">
          <mxGeometry x="630" y="200" width="120" height="60" as="geometry" />
        </mxCell>
        <mxCell id="U6mOK4DwWGYdjo9MZb6x-14" value="" style="shape=trapezoid;perimeter=trapezoidPerimeter;whiteSpace=wrap;html=1;fixedSize=1;size=30;rotation=-180;" vertex="1" parent="1">
          <mxGeometry x="600" y="140" width="180" height="60" as="geometry" />
        </mxCell>
        <mxCell id="U6mOK4DwWGYdjo9MZb6x-15" value="end-to&lt;div&gt;-end&lt;/div&gt;" style="text;html=1;align=center;verticalAlign=middle;whiteSpace=wrap;rounded=0;fontSize=12;" vertex="1" parent="1">
          <mxGeometry x="660" y="155" width="60" height="30" as="geometry" />
        </mxCell>
        <mxCell id="U6mOK4DwWGYdjo9MZb6x-16" value="통합" style="text;html=1;align=center;verticalAlign=middle;whiteSpace=wrap;rounded=0;" vertex="1" parent="1">
          <mxGeometry x="660" y="215" width="60" height="30" as="geometry" />
        </mxCell>
        <mxCell id="U6mOK4DwWGYdjo9MZb6x-17" value="단위" style="text;html=1;align=center;verticalAlign=middle;whiteSpace=wrap;rounded=0;" vertex="1" parent="1">
          <mxGeometry x="660" y="270" width="60" height="30" as="geometry" />
        </mxCell>
        <mxCell id="U6mOK4DwWGYdjo9MZb6x-20" value="" style="rhombus;whiteSpace=wrap;html=1;" vertex="1" parent="1">
          <mxGeometry x="300" y="100" width="240" height="260" as="geometry" />
        </mxCell>
        <mxCell id="U6mOK4DwWGYdjo9MZb6x-22" value="" style="endArrow=none;html=1;rounded=0;" edge="1" parent="1">
          <mxGeometry width="50" height="50" relative="1" as="geometry">
            <mxPoint x="352" y="286" as="sourcePoint" />
            <mxPoint x="488" y="286" as="targetPoint" />
          </mxGeometry>
        </mxCell>
        <mxCell id="U6mOK4DwWGYdjo9MZb6x-23" value="" style="endArrow=none;html=1;rounded=0;" edge="1" parent="1">
          <mxGeometry width="50" height="50" relative="1" as="geometry">
            <mxPoint x="352" y="173" as="sourcePoint" />
            <mxPoint x="488" y="173" as="targetPoint" />
          </mxGeometry>
        </mxCell>
        <mxCell id="U6mOK4DwWGYdjo9MZb6x-24" value="end-to&lt;div&gt;-end&lt;/div&gt;" style="text;html=1;align=center;verticalAlign=middle;whiteSpace=wrap;rounded=0;fontSize=11;" vertex="1" parent="1">
          <mxGeometry x="390" y="130" width="60" height="30" as="geometry" />
        </mxCell>
        <mxCell id="U6mOK4DwWGYdjo9MZb6x-25" value="통합" style="text;html=1;align=center;verticalAlign=middle;whiteSpace=wrap;rounded=0;" vertex="1" parent="1">
          <mxGeometry x="390" y="210" width="60" height="30" as="geometry" />
        </mxCell>
        <mxCell id="U6mOK4DwWGYdjo9MZb6x-26" value="단위" style="text;html=1;align=center;verticalAlign=middle;whiteSpace=wrap;rounded=0;" vertex="1" parent="1">
          <mxGeometry x="390" y="300" width="60" height="30" as="geometry" />
        </mxCell>
        <mxCell id="U6mOK4DwWGYdjo9MZb6x-27" value="피라미드형 테스트" style="text;html=1;align=center;verticalAlign=middle;whiteSpace=wrap;rounded=0;fontStyle=1" vertex="1" parent="1">
          <mxGeometry x="90" y="390" width="100" height="30" as="geometry" />
        </mxCell>
        <mxCell id="U6mOK4DwWGYdjo9MZb6x-29" value="다이아몬드형 테스트" style="text;html=1;align=center;verticalAlign=middle;whiteSpace=wrap;rounded=0;fontStyle=1" vertex="1" parent="1">
          <mxGeometry x="370" y="390" width="100" height="30" as="geometry" />
        </mxCell>
        <mxCell id="U6mOK4DwWGYdjo9MZb6x-30" value="역피라미드형 테스트" style="text;html=1;align=center;verticalAlign=middle;whiteSpace=wrap;rounded=0;fontStyle=1" vertex="1" parent="1">
          <mxGeometry x="640" y="390" width="100" height="30" as="geometry" />
        </mxCell>
      </root>
    </mxGraphModel>
  </diagram>
</mxfile>
